RBDS012runT25_grf
version=1
nRows=30
nColumns=19
inDegrees=no
endheader
time	ground_force_r_vx	ground_force_r_vy	ground_force_r_vz	ground_force_r_px	ground_force_r_py	ground_force_r_pz	ground_force_r_mx	ground_force_r_my	ground_force_r_mz	ground_force_l_vx	ground_force_l_vy	ground_force_l_vz	ground_force_l_px	ground_force_l_py	ground_force_l_pz	ground_force_l_mx	ground_force_l_my	ground_force_l_mz
      7.49900000	      0.00000000	      0.00000000	      0.00000000	      0.00000000	      0.00000000	      0.00000000	      0.00000000	      0.00000000	      0.00000000	   -185.73222411	   1460.32292835	     53.43607403	      2.19827188	      0.00000000	      0.92545426	     -0.00000000	      8.68008900	     -0.00000000
      7.50000000	      0.00000000	      0.00000000	      0.00000000	      0.00000000	      0.00000000	      0.00000000	      0.00000000	      0.00000000	      0.00000000	   -187.53261308	   1470.70037770	     54.72992336	      2.19750879	      0.00000000	      0.92539132	     -0.00000000	      8.74967049	     -0.00000000
      7.50100000	      0.00000000	      0.00000000	      0.00000000	      0.00000000	      0.00000000	      0.00000000	      0.00000000	      0.00000000	      0.00000000	   -188.64327475	   1480.77426778	     55.91516243	      2.19659038	      0.00000000	      0.92533299	     -0.00000000	      8.82129857	     -0.00000000
      7.50200000	      0.00000000	      0.00000000	      0.00000000	      0.00000000	      0.00000000	      0.00000000	      0.00000000	      0.00000000	      0.00000000	   -189.75393641	   1490.84815786	     57.10040149	      2.19567196	      0.00000000	      0.92527466	     -0.00000000	      8.89292665	     -0.00000000
      7.50300000	      0.00000000	      0.00000000	      0.00000000	      0.00000000	      0.00000000	      0.00000000	      0.00000000	      0.00000000	      0.00000000	   -190.86459808	   1500.92204793	     58.28564056	      2.19475355	      0.00000000	      0.92521633	     -0.00000000	      8.96455474	     -0.00000000
      7.50400000	      0.00000000	      0.00000000	      0.00000000	      0.00000000	      0.00000000	      0.00000000	      0.00000000	      0.00000000	      0.00000000	   -191.51002879	   1510.77719487	     59.39325729	      2.19372882	      0.00000000	      0.92516078	     -0.00000000	      9.03729491	     -0.00000000
      7.50500000	      0.00000000	      0.00000000	      0.00000000	      0.00000000	      0.00000000	      0.00000000	      0.00000000	      0.00000000	      0.00000000	   -191.92284404	   1520.52297024	     60.46206285	      2.19265094	      0.00000000	      0.92510661	     -0.00000000	      9.11059112	     -0.00000000
      7.50600000	      0.00000000	      0.00000000	      0.00000000	      0.00000000	      0.00000000	      0.00000000	      0.00000000	      0.00000000	      0.00000000	   -192.33565928	   1530.26874560	     61.53086841	      2.19157305	      0.00000000	      0.92505244	     -0.00000000	      9.18388733	      0.00000000
      7.50700000	      0.00000000	      0.00000000	      0.00000000	      0.00000000	      0.00000000	      0.00000000	      0.00000000	      0.00000000	      0.00000000	   -192.52028060	   1539.88903553	     62.55952043	      2.19044222	      0.00000000	      0.92499950	     -0.00000000	      9.25755449	      0.00000000
      7.50800000	      0.00000000	      0.00000000	      0.00000000	      0.00000000	      0.00000000	      0.00000000	      0.00000000	      0.00000000	      0.00000000	   -192.24851408	   1549.25835460	     63.50786536	      2.18920551	      0.00000000	      0.92494901	     -0.00000000	      9.33196355	      0.00000000
      7.50900000	      0.00000000	      0.00000000	      0.00000000	      0.00000000	      0.00000000	      0.00000000	      0.00000000	      0.00000000	      0.00000000	   -191.97674755	   1558.62767366	     64.45621029	      2.18796880	      0.00000000	      0.92489851	     -0.00000000	      9.40637261	      0.00000000
      7.51000000	      0.00000000	      0.00000000	      0.00000000	      0.00000000	      0.00000000	      0.00000000	      0.00000000	      0.00000000	      0.00000000	   -191.70498102	   1567.99699272	     65.40455522	      2.18673209	      0.00000000	      0.92484802	     -0.00000000	      9.48078167	      0.00000000
      7.51100000	      0.00000000	      0.00000000	      0.00000000	      0.00000000	      0.00000000	      0.00000000	      0.00000000	      0.00000000	      0.00000000	   -190.78103190	   1576.92171201	     66.23191411	      2.18534166	      0.00000000	      0.92480069	     -0.00000000	      9.55564795	      0.00000000
      7.51200000	      0.00000000	      0.00000000	      0.00000000	      0.00000000	      0.00000000	      0.00000000	      0.00000000	      0.00000000	      0.00000000	   -189.85708278	   1585.84643131	     67.05927299	      2.18395122	      0.00000000	      0.92475336	     -0.00000000	      9.63051423	      0.00000000
      7.51300000	      0.00000000	      0.00000000	      0.00000000	      0.00000000	      0.00000000	      0.00000000	      0.00000000	      0.00000000	      0.00000000	   -188.93313367	   1594.77115060	     67.88663188	      2.18256079	      0.00000000	      0.92470603	     -0.00000000	      9.70538051	      0.00000000
      7.51400000	      0.00000000	      0.00000000	      0.00000000	      0.00000000	      0.00000000	      0.00000000	      0.00000000	      0.00000000	      0.00000000	   -187.60681098	   1603.34396689	     68.63503105	      2.18107392	      0.00000000	      0.92466046	     -0.00000000	      9.78009498	      0.00000000
      7.51500000	      0.00000000	      0.00000000	      0.00000000	      0.00000000	      0.00000000	      0.00000000	      0.00000000	      0.00000000	      0.00000000	   -186.07930152	   1611.74083167	     69.34395035	      2.17953882	      0.00000000	      0.92461576	     -0.00000000	      9.85473356	      0.00000000
      7.51600000	      0.00000000	      0.00000000	      0.00000000	      0.00000000	      0.00000000	      0.00000000	      0.00000000	      0.00000000	      0.00000000	   -184.55179206	   1620.13769645	     70.05286966	      2.17800373	      0.00000000	      0.92457107	     -0.00000000	      9.92937214	      0.00000000
      7.51700000	      0.00000000	      0.00000000	      0.00000000	      0.00000000	      0.00000000	      0.00000000	      0.00000000	      0.00000000	      0.00000000	   -182.84358262	   1628.32751119	     70.72399981	      2.17642455	      0.00000000	      0.92452708	     -0.00000000	     10.00371655	      0.00000000
      7.51800000	      0.00000000	      0.00000000	      0.00000000	      0.00000000	      0.00000000	      0.00000000	      0.00000000	      0.00000000	      0.00000000	   -180.77397323	   1636.10322584	     71.31955163	      2.17475720	      0.00000000	      0.92448449	     -0.00000000	     10.07747265	      0.00000000
      7.51900000	      0.00000000	      0.00000000	      0.00000000	      0.00000000	      0.00000000	      0.00000000	      0.00000000	      0.00000000	      0.00000000	   -178.70436384	   1643.87894049	     71.91510346	      2.17308984	      0.00000000	      0.92444190	     -0.00000000	     10.15122875	      0.00000000
      7.52000000	      0.00000000	      0.00000000	      0.00000000	      0.00000000	      0.00000000	      0.00000000	      0.00000000	      0.00000000	      0.00000000	   -176.63475445	   1651.65465513	     72.51065528	      2.17142249	      0.00000000	      0.92439930	     -0.00000000	     10.22498484	      0.00000000
      7.52100000	      0.00000000	      0.00000000	      0.00000000	      0.00000000	      0.00000000	      0.00000000	      0.00000000	      0.00000000	      0.00000000	   -174.09368294	   1658.71102108	     72.99980229	      2.16963788	      0.00000000	      0.92435830	     -0.00000000	     10.29727675	      0.00000000
      7.52200000	      0.00000000	      0.00000000	      0.00000000	      0.00000000	      0.00000000	      0.00000000	      0.00000000	      0.00000000	      0.00000000	   -171.55261143	   1665.76738703	     73.48894930	      2.16785327	      0.00000000	      0.92431730	     -0.00000000	     10.36956867	      0.00000000
      7.52300000	      0.00000000	      0.00000000	      0.00000000	      0.00000000	      0.00000000	      0.00000000	      0.00000000	      0.00000000	      0.00000000	   -169.01153991	   1672.82375298	     73.97809630	      2.16606866	      0.00000000	      0.92427630	     -0.00000000	     10.44186058	      0.00000000
      7.52400000	      0.00000000	      0.00000000	      0.00000000	      0.00000000	      0.00000000	      0.00000000	      0.00000000	      0.00000000	      0.00000000	   -166.20687715	   1679.33510350	     74.40175022	      2.16421709	      0.00000000	      0.92423604	     -0.00000000	     10.51285342	      0.00000000
      7.52500000	      0.00000000	      0.00000000	      0.00000000	      0.00000000	      0.00000000	      0.00000000	      0.00000000	      0.00000000	      0.00000000	   -163.27041877	   1685.57394630	     74.79265758	      2.16233204	      0.00000000	      0.92419615	     -0.00000000	     10.58319673	      0.00000000
      7.52600000	      0.00000000	      0.00000000	      0.00000000	      0.00000000	      0.00000000	      0.00000000	      0.00000000	      0.00000000	      0.00000000	   -160.33396038	   1691.81278910	     75.18356494	      2.16044700	      0.00000000	      0.92415627	     -0.00000000	     10.65354003	      0.00000000
      7.52700000	      0.00000000	      0.00000000	      0.00000000	      0.00000000	      0.00000000	      0.00000000	      0.00000000	      0.00000000	      0.00000000	   -157.29166666	   1697.74790244	     75.54461527	      2.15853442	      0.00000000	      0.92411661	     -0.00000000	     10.72310682	      0.00000000
      7.52800000	      0.00000000	      0.00000000	      0.00000000	      0.00000000	      0.00000000	      0.00000000	      0.00000000	      0.00000000	      0.00000000	   -154.03770227	   1703.07555687	     75.84595152	      2.15656676	      0.00000000	      0.92407741	     -0.00000000	     10.79112056	      0.00000000
